<?xml version="1.0" standalone="no"?>
<!DOCTYPE svg PUBLIC "-//W3C//DTD SVG 20010904//EN"
 "http://www.w3.org/TR/2001/REC-SVG-20010904/DTD/svg10.dtd">
<svg version="1.0" xmlns="http://www.w3.org/2000/svg"
 width="512.000000pt" height="512.000000pt" viewBox="0 0 512.000000 512.000000"
 preserveAspectRatio="xMidYMid meet">

<g transform="translate(0.000000,512.000000) scale(0.100000,-0.100000)"
fill="#000000" stroke="none">
<path d="M62 3880 c-42 -26 -66 -80 -57 -129 5 -31 164 -194 1248 -1278 1319
-1318 1261 -1264 1340 -1248 26 6 270 245 1274 1248 1101 1102 1242 1246 1248
1279 15 82 -60 158 -140 144 -37 -7 -143 -111 -1228 -1194 l-1187 -1187 -1183
1182 c-669 669 -1194 1187 -1210 1193 -41 15 -68 12 -105 -10z"/>
</g>
</svg>
